<?xml version="1.0" standalone="no"?>
<!DOCTYPE svg PUBLIC "-//W3C//DTD SVG 20010904//EN"
 "http://www.w3.org/TR/2001/REC-SVG-20010904/DTD/svg10.dtd">
<svg version="1.0" xmlns="http://www.w3.org/2000/svg"
 width="225.000000pt" height="225.000000pt" viewBox="0 0 225.000000 225.000000"
 preserveAspectRatio="xMidYMid meet">
<metadata>
Created by potrace 1.15, written by Peter Selinger 2001-2017
</metadata>
<g transform="translate(0.000000,225.000000) scale(0.100000,-0.100000)"
fill="#000000" stroke="none">
<path d="M954 2216 c-83 -27 -141 -65 -206 -133 -90 -97 -128 -209 -128 -381
0 -209 64 -389 203 -569 49 -64 52 -71 54 -132 2 -74 15 -93 96 -137 43 -23
67 -29 137 -32 101 -5 174 18 233 72 34 31 37 38 37 91 0 65 3 71 71 161 235
310 252 732 39 945 -98 99 -205 139 -364 139 -77 -1 -118 -6 -172 -24z"/>
<path d="M690 826 c-255 -111 -444 -245 -494 -350 -22 -46 -31 -128 -22 -191
6 -36 17 -58 49 -92 110 -120 354 -178 792 -189 583 -16 952 63 1042 221 31
55 33 189 2 251 -28 59 -139 161 -240 221 -115 69 -332 165 -342 152 -2 -2
-18 -60 -36 -129 -44 -168 -106 -362 -140 -435 l-27 -60 -28 89 c-15 48 -41
122 -57 164 l-29 77 45 38 c36 31 45 45 45 71 0 39 -30 76 -88 105 l-40 20
-44 -22 c-26 -14 -51 -37 -63 -59 -18 -35 -19 -38 -3 -71 9 -20 31 -43 47 -53
17 -10 31 -23 31 -29 0 -5 -23 -72 -50 -147 -28 -75 -50 -144 -50 -153 0 -95
-123 236 -190 513 -12 50 -25 92 -29 91 -3 0 -40 -15 -81 -33z"/>
</g>
</svg>
